<?xml version="1.0" standalone="no"?>
<!DOCTYPE svg PUBLIC "-//W3C//DTD SVG 20010904//EN"
 "http://www.w3.org/TR/2001/REC-SVG-20010904/DTD/svg10.dtd">
<svg version="1.0" xmlns="http://www.w3.org/2000/svg"
 width="1200.000000pt" height="1200.000000pt" viewBox="0 0 1200.000000 1200.000000"
 preserveAspectRatio="xMidYMid meet">
<metadata>
Created by potrace 1.14, written by Peter Selinger 2001-2017
</metadata>
<g transform="translate(0.000000,1200.000000) scale(0.100000,-0.100000)"
fill="#000000" stroke="none">
<path d="M10 11187 c0 -6 65 -122 105 -188 6 -9 21 -36 34 -60 13 -24 42 -76
65 -114 57 -97 63 -108 172 -295 52 -91 99 -172 104 -180 5 -8 50 -87 100
-175 51 -88 109 -189 130 -225 59 -101 204 -352 355 -615 76 -132 163 -283
193 -335 49 -84 130 -225 183 -317 10 -18 69 -119 130 -225 61 -106 123 -213
137 -238 14 -25 96 -166 182 -315 86 -148 169 -292 184 -320 57 -102 179 -311
197 -337 11 -15 19 -29 19 -32 0 -3 31 -58 68 -123 38 -65 80 -138 94 -163 14
-25 71 -123 127 -218 55 -96 101 -175 101 -177 0 -2 18 -33 41 -70 41 -69 62
-104 107 -185 13 -25 28 -49 32 -55 4 -5 28 -46 52 -90 25 -44 118 -205 206
-359 89 -153 162 -282 162 -287 0 -5 5 -9 10 -9 6 0 10 -4 10 -9 0 -6 39 -76
86 -158 47 -81 96 -166 109 -188 12 -22 55 -96 95 -165 40 -69 84 -145 98
-170 13 -25 28 -49 32 -55 4 -5 19 -30 32 -55 43 -77 64 -113 96 -166 18 -28
32 -56 32 -63 0 -6 5 -11 10 -11 6 0 10 -4 10 -10 0 -5 22 -47 49 -92 70 -120
268 -462 311 -538 20 -36 78 -137 130 -225 51 -88 106 -185 123 -215 17 -30
48 -83 69 -118 21 -34 38 -65 38 -67 0 -3 22 -42 50 -86 27 -44 50 -82 50 -84
0 -2 38 -68 83 -147 99 -169 349 -604 385 -668 14 -25 42 -74 64 -109 21 -34
38 -65 38 -67 0 -2 17 -32 38 -66 21 -35 52 -88 69 -118 17 -30 88 -154 158
-275 102 -176 324 -561 414 -717 9 -16 19 -28 22 -28 4 0 15 17 24 37 10 21
23 45 30 53 7 8 26 40 42 70 34 62 308 537 323 560 5 8 23 40 40 70 17 30 39
69 49 85 10 17 71 122 136 235 64 113 121 210 125 215 4 6 21 35 37 65 30 55
195 342 213 370 5 8 40 69 78 135 38 66 92 161 121 210 29 50 64 110 78 134
13 25 108 189 211 365 102 177 196 341 210 366 13 25 36 65 52 90 27 44 192
329 243 420 14 25 49 86 77 135 86 146 121 208 145 250 12 22 46 81 75 130 29
50 64 110 78 135 38 67 53 94 132 230 79 135 253 436 280 485 9 17 40 69 69
117 28 48 51 91 51 97 0 6 5 11 10 11 6 0 10 6 10 14 0 7 7 19 15 26 9 7 13
15 10 18 -3 3 1 12 8 21 8 9 78 129 157 266 79 138 206 358 281 490 76 132
142 245 146 251 8 10 11 15 58 99 15 28 93 163 172 300 80 138 178 306 217
375 40 69 123 213 185 320 62 107 117 202 122 210 5 8 54 94 109 190 55 96
104 182 110 190 5 8 21 36 35 62 13 26 49 88 80 139 30 50 55 93 55 94 0 1 30
54 66 116 37 63 78 134 92 159 13 25 37 65 52 90 31 50 211 362 245 425 13 22
80 139 150 260 70 121 135 234 144 250 9 17 19 31 24 33 4 2 7 7 7 12 0 4 48
90 106 191 58 101 167 290 241 419 75 129 144 249 154 265 l18 31 -2307 2
-2308 1 -264 -457 c-145 -251 -328 -568 -406 -703 -78 -136 -153 -266 -167
-290 -13 -24 -130 -226 -259 -449 -129 -223 -245 -424 -258 -448 -13 -23 -26
-42 -30 -42 -3 0 -124 206 -270 458 -145 251 -326 564 -402 696 -76 131 -138
240 -138 241 0 2 -23 40 -50 85 -28 45 -50 83 -50 85 0 3 -22 42 -49 87 -27
46 -58 100 -70 122 -12 21 -78 135 -147 255 -70 119 -145 248 -168 288 l-41
72 -2302 -2 c-1267 -1 -2303 -5 -2303 -10z"/>
</g>
</svg>
